<svg width="38" height="38" viewBox="0 0 38 38" fill="none" xmlns="http://www.w3.org/2000/svg">
<path d="M7.91667 17.4167L10.2917 10.2917H27.7083L30.0833 17.4167M27.7083 25.3333C27.0784 25.3333 26.4744 25.0831 26.029 24.6377C25.5836 24.1923 25.3333 23.5882 25.3333 22.9583C25.3333 22.3284 25.5836 21.7243 26.029 21.2789C26.4744 20.8335 27.0784 20.5833 27.7083 20.5833C28.3382 20.5833 28.9423 20.8335 29.3877 21.2789C29.8331 21.7243 30.0833 22.3284 30.0833 22.9583C30.0833 23.5882 29.8331 24.1923 29.3877 24.6377C28.9423 25.0831 28.3382 25.3333 27.7083 25.3333ZM10.2917 25.3333C9.66178 25.3333 9.05769 25.0831 8.61229 24.6377C8.16689 24.1923 7.91667 23.5882 7.91667 22.9583C7.91667 22.3284 8.16689 21.7243 8.61229 21.2789C9.05769 20.8335 9.66178 20.5833 10.2917 20.5833C10.9216 20.5833 11.5256 20.8335 11.971 21.2789C12.4164 21.7243 12.6667 22.3284 12.6667 22.9583C12.6667 23.5882 12.4164 24.1923 11.971 24.6377C11.5256 25.0831 10.9216 25.3333 10.2917 25.3333ZM29.9567 9.49999C29.64 8.58166 28.7533 7.91666 27.7083 7.91666H10.2917C9.24667 7.91666 8.36 8.58166 8.04333 9.49999L4.75 19V31.6667C4.75 32.0866 4.91681 32.4893 5.21375 32.7862C5.51068 33.0832 5.91341 33.25 6.33333 33.25H7.91667C8.33659 33.25 8.73932 33.0832 9.03625 32.7862C9.33318 32.4893 9.5 32.0866 9.5 31.6667V30.0833H28.5V31.6667C28.5 32.0866 28.6668 32.4893 28.9637 32.7862C29.2607 33.0832 29.6634 33.25 30.0833 33.25H31.6667C32.0866 33.25 32.4893 33.0832 32.7863 32.7862C33.0832 32.4893 33.25 32.0866 33.25 31.6667V19L29.9567 9.49999Z" fill="white"/>
</svg>
